<svg aria-hidden="true" style="position:absolute;width:0;height:0;overflow:hidden" xmlns="http://www.w3.org/2000/svg"><defs><symbol id="arrow" viewBox="0 0 77 32"><path  d="M2.667 14a2 2 0 1 0 0 4v-4zm73.413 3.413c.361-.362.585-.861.585-1.413s-.224-1.052-.585-1.413L63.353 1.858a2.001 2.001 0 0 0-2.83 2.83l11.316 11.313-11.315 11.313a2.001 2.001 0 0 0 2.83 2.83l12.728-12.728zM2.667 18h72v-4h-72v4z"/></symbol><symbol id="menu" viewBox="0 0 54 32"><path  stroke="#fbfcfe" style="stroke:var(--color1, #fbfcfe)" stroke-linecap="round" stroke-width="4.146" d="M2.719 2.291h48.364M2.719 16.109h48.364M2.719 29.928h48.364"/></symbol><symbol id="facebook" viewBox="0 0 32 32"><path d="M32 16.097C32 7.206 24.838 0 16 0S0 7.205 0 16.097C0 24.132 5.851 30.791 13.5 32V20.751H9.433v-4.654h4.065v-3.546c0-4.035 2.387-6.263 6.043-6.263 1.751 0 3.583.314 3.583.314v3.96h-2.017c-1.987 0-2.607 1.242-2.607 2.513v3.022h4.438l-.71 4.654h-3.727V32c7.651-1.208 13.5-7.868 13.5-15.903z"/></symbol><symbol id="instagram" viewBox="0 0 32 32"><path d="M16.004 7.795h-.012a8.19 8.19 0 0 0-8.191 8.191v.015V16v.014a8.19 8.19 0 0 0 8.191 8.191h.012-.001.012a8.19 8.19 0 0 0 8.191-8.191v-.015V16v-.014a8.19 8.19 0 0 0-8.191-8.191h-.012.001zm0 13.539a5.342 5.342 0 0 1-5.332-5.333V16a5.338 5.338 0 0 1 5.332-5.334A5.337 5.337 0 0 1 21.336 16a5.343 5.343 0 0 1-5.332 5.334h-.001zM26.455 7.46a1.915 1.915 0 1 1-3.827-.001 1.915 1.915 0 0 1 3.827.001zm5.432 1.942c-.122-2.563-.707-4.833-2.584-6.705C27.433.827 25.162.241 22.6.111c-2.641-.148-10.559-.148-13.199 0C6.845.234 4.575.819 2.698 2.69.82 4.56.242 6.831.112 9.395c-.148 2.642-.148 10.56 0 13.202.123 2.564.708 4.835 2.586 6.706 1.878 1.87 4.141 2.456 6.703 2.586 2.641.148 10.559.148 13.199 0 2.563-.123 4.833-.708 6.703-2.586 1.87-1.871 2.456-4.142 2.586-6.706.148-2.641.148-10.552 0-13.196zm-3.412 16.032a5.437 5.437 0 0 1-3.005 3.03l-.036.013c-2.106.835-7.103.643-9.43.643s-7.332.186-9.431-.643a5.43 5.43 0 0 1-3.028-3.006l-.013-.036c-.835-2.106-.643-7.104-.643-9.432s-.186-7.334.643-9.434a5.434 5.434 0 0 1 3.005-3.028l.036-.013c2.107-.835 7.104-.643 9.431-.643s7.332-.186 9.43.643a5.43 5.43 0 0 1 3.028 3.006l.013.036c.836 2.106.643 7.104.643 9.432s.192 7.334-.643 9.434z"/></symbol><symbol id="youtube" viewBox="0 0 32 32"><path d="M31.332 5.007c-.369-1.971-1.453-3.524-2.829-4.05C26.006 0 16 0 16 0S5.993 0 3.498.957c-1.377.526-2.461 2.079-2.829 4.05C0 8.578 0 16.032 0 16.032s0 7.453.668 11.026c.369 1.971 1.453 3.459 2.829 3.985C5.994 32 16 32 16 32s10.007 0 12.502-.957c1.377-.526 2.461-2.013 2.829-3.985C32 23.486 32 16.032 32 16.032s0-7.453-.668-11.025zM12.727 22.799V9.266l8.364 6.766-8.364 6.767z"/></symbol><symbol id="about" viewBox="0 0 32 32"><path d="M0 0h4.364C19.627 0 32 12.374 32 27.636V32h-4.364C12.373 32 0 19.626 0 4.364V0z"/></symbol></defs></svg>